<?xml version="1.0" encoding="UTF-8"?>
<!-- Created with Inkscape (http://www.inkscape.org/) -->
<svg width="512" height="512" version="1.1" viewBox="0 0 135.47 135.47" xmlns="http://www.w3.org/2000/svg">
 <g display="none">
  <path transform="matrix(1.2472 0 0 1.2472 -16.741 -16.741)" x="13.423105" y="13.423105" width="108.62045" height="108.62045" d="m26.652 13.423h82.162a13.229 13.229 45 0 1 13.229 13.229v82.162a13.229 13.229 135 0 1-13.229 13.229h-82.162a13.229 13.229 45 0 1-13.229-13.229v-82.162a13.229 13.229 135 0 1 13.229-13.229z" fill="#fff"/>
  <text transform="matrix(2.4152 0 0 2.4152 -151.24 -61.701)" display="inline" fill="#000000" font-family="Verdana" font-size="40px" font-weight="bold" style="font-variant-caps:normal;font-variant-east-asian:normal;font-variant-ligatures:normal;font-variant-numeric:normal;line-height:1.25;shape-inside:url(#rect2);white-space:pre" xml:space="preserve"><tspan x="67.675781" y="74.198291">S</tspan></text>
 </g>
 <path transform="matrix(1.2472 0 0 1.2472 -16.741 -16.741)" d="m26.652 13.423a13.229 13.229 0 0 0-13.229 13.229v82.162a13.229 13.229 0 0 0 13.229 13.229h82.162a13.229 13.229 0 0 0 13.229-13.229v-82.162a13.229 13.229 0 0 0-13.229-13.229h-82.162zm26.212 36.876c3.7067 0 7.3629 0.36554 10.969 1.0968 3.6311 0.70604 6.7706 1.6012 9.4183 2.6854v12.973h-1.5509c-2.2694-1.8155-5.0555-3.3285-8.3588-4.5388-3.278-1.2356-6.632-1.853-10.061-1.853-1.2104 0-2.4206 0.088263-3.631 0.26477-1.1851 0.15129-2.3325 0.45355-3.442 0.90744-0.98341 0.37824-1.8282 0.95819-2.5342 1.7399-0.70604 0.75647-1.0591 1.6266-1.0591 2.61 0 1.4877 0.56746 2.6351 1.7022 3.442 1.1347 0.78169 3.278 1.5003 6.4299 2.1559 2.0677 0.42867 4.0473 0.84458 5.9385 1.248 1.9164 0.40345 3.9714 0.95842 6.1652 1.6645 4.3119 1.4121 7.4889 3.3409 9.5314 5.7869 2.0677 2.4207 3.1019 5.5728 3.1019 9.456 0 5.5475-2.3577 10.061-7.073 13.541-4.6901 3.4546-11.07 5.1819-19.139 5.1819-4.6649 0-8.737-0.40343-12.217-1.2103-3.4546-0.83212-6.6949-1.8784-9.7207-3.1392v-13.503h1.5886c3.0007 2.3955 6.3542 4.2365 10.061 5.5225 3.7319 1.286 7.3128 1.9288 10.742 1.9288 0.88255 0 2.0424-0.075357 3.4797-0.22665 1.4373-0.1513 2.6097-0.40359 3.5175-0.75661 1.1095-0.45388 2.0171-1.0213 2.7231-1.7022 0.73126-0.68082 1.0972-1.6896 1.0972-3.026 0-1.2356-0.52957-2.2943-1.5886-3.1769-1.0338-0.90777-2.5597-1.6014-4.577-2.0805-2.1181-0.50432-4.3621-0.97061-6.7324-1.3993-2.3451-0.45388-4.5516-1.0213-6.6193-1.7022-4.7406-1.5382-8.157-3.6186-10.25-6.241-2.0677-2.6477-3.1019-5.9258-3.1019-9.8343 0-5.2449 2.3452-9.5189 7.0353-12.822 4.7153-3.3285 10.767-4.9926 18.155-4.9926z" fill="#fff"/>
</svg>
